<svg width="52.000000" height="52.000000" viewBox="0 0 52 52" fill="none" xmlns="http://www.w3.org/2000/svg" xmlns:xlink="http://www.w3.org/1999/xlink">
	<desc>
			Created with Pixso.
	</desc>
	<defs/>
	<path id="path" d="M26 0C11.64 0 0 11.64 0 26C0 40.35 11.64 52 26 52C40.36 52 52 40.35 52 26C52 11.64 40.36 0 26 0ZM26 46.53C14.67 46.53 5.46 37.32 5.46 26C5.46 14.67 14.67 5.46 26 5.46C37.32 5.46 46.53 14.67 46.53 26C46.53 37.32 37.32 46.53 26 46.53Z" fill="#9F7267" fill-opacity="1.000000" fill-rule="nonzero"/>
	<path id="path" d="M42.46 16.35C42.33 16.12 42.05 16 41.79 16.08L23.32 21.11C23.22 21.14 23.12 21.2 23.05 21.27L9.62 34.92C9.43 35.11 9.39 35.41 9.53 35.64C9.66 35.87 9.94 35.99 10.2 35.91L28.67 30.88C28.72 30.86 28.77 30.84 28.82 30.82C28.86 30.79 28.91 30.76 28.94 30.72L42.37 17.07C42.56 16.88 42.6 16.58 42.46 16.35ZM14.6 32.67L23.6 23.52L26.98 29.29L14.6 32.67Z" fill="#9F7267" fill-opacity="1.000000" fill-rule="nonzero"/>
</svg>
