<svg width="189.657349" height="189.774414" viewBox="0 0 189.657 189.774" fill="none" xmlns="http://www.w3.org/2000/svg" xmlns:xlink="http://www.w3.org/1999/xlink">
	<desc>
			Created with Pixso.
	</desc>
	<defs>
		<clipPath id="clip49_234">
			<rect id="planet" width="189.657227" height="189.774307" fill="white" fill-opacity="0"/>
		</clipPath>
	</defs>
	<g clip-path="url(#clip49_234)">
		<ellipse id="circle" cx="97.386353" cy="98.569336" rx="65.464256" ry="65.504662" stroke="#666666" stroke-opacity="1.000000" stroke-width="4.000000"/>
		<path id="star" d="M169.77 49C169.73 50.34 154.79 47.49 146.81 55.3C139.15 62.8 141.41 76.71 140.03 76.7C138.66 76.7 141.04 62.96 133.52 55.3C125.57 47.19 110.32 49.75 110.3 48.4C110.29 47.06 125.62 49.35 133.52 41.03C140.46 33.71 138.46 21.55 140.03 21.54C141.61 21.54 139.68 33.76 146.7 41.22C154.6 49.65 169.8 47.66 169.77 49Z" fill="#EDE6E5" fill-opacity="1.000000" fill-rule="nonzero"/>
		<path id="star" d="M146.81 55.3C139.15 62.8 141.41 76.71 140.03 76.7C138.66 76.7 141.04 62.96 133.52 55.3C125.57 47.19 110.32 49.75 110.3 48.4C110.29 47.06 125.62 49.35 133.52 41.03C140.46 33.71 138.46 21.55 140.03 21.54C141.61 21.54 139.68 33.76 146.7 41.22C154.6 49.65 169.8 47.66 169.77 49C169.73 50.34 154.79 47.49 146.81 55.3Z" stroke="#666666" stroke-opacity="1.000000" stroke-width="4.000000"/>
		<path id="star" d="M84.45 155.49C84.42 156.38 74.47 154.47 69.15 159.72C64.04 164.76 65.54 174.1 64.63 174.1C63.71 174.1 65.3 164.87 60.28 159.72C54.98 154.27 44.82 155.99 44.81 155.08C44.8 154.18 55.02 155.72 60.28 150.13C64.91 145.21 63.58 137.04 64.63 137.04C65.68 137.03 64.39 145.24 69.07 150.26C74.34 155.92 84.47 154.59 84.45 155.49Z" fill="#666666" fill-opacity="1.000000" fill-rule="nonzero"/>
		<path id="star" d="M69.15 159.72C64.04 164.76 65.54 174.1 64.63 174.1C63.71 174.1 65.3 164.87 60.28 159.72C54.98 154.27 44.82 155.99 44.81 155.08C44.8 154.18 55.02 155.72 60.28 150.13C64.91 145.21 63.58 137.04 64.63 137.04C65.68 137.03 64.39 145.24 69.07 150.26C74.34 155.92 84.47 154.59 84.45 155.49C84.42 156.38 74.47 154.47 69.15 159.72Z" stroke="#666666" stroke-opacity="1.000000" stroke-width="4.000000"/>
	</g>
</svg>
