<svg width="1979.647095" height="8119.474121" viewBox="0 0 1979.65 8119.47" fill="none" xmlns="http://www.w3.org/2000/svg" xmlns:xlink="http://www.w3.org/1999/xlink">
	<desc>
			Created with Pixso.
	</desc>
	<defs/>
	<path id="Линия 3" d="M995.27 7312.46C995.27 7312.46 954.66 7382.93 930.34 7610.39C906.02 7837.85 995.27 8047.96 995.27 8047.96L995.27 7312.46Z" fill="#FFE4DD" fill-opacity="0.260000" fill-rule="evenodd"/>
	<path id="Линия 3" d="M930.34 7610.39C906.02 7837.85 995.27 8047.96 995.27 8047.96L995.27 7312.46C995.27 7312.46 954.66 7382.93 930.34 7610.39Z" stroke="#000000" stroke-opacity="0" stroke-width="1.000000"/>
	<path id="Линия 3" d="M977.55 4281.02C874.05 4155.04 871.55 4334.56 931.55 4493.54C931.55 4493.54 982.66 4708.89 1004.06 4632.52C1014.26 4596.1 1001.68 4505.18 1004.06 4420.52C1007.14 4310.9 1029.69 4344.48 977.55 4281.02Z" fill="#FFE4DD" fill-opacity="0.370000" fill-rule="evenodd"/>
	<path id="Линия 3" d="M931.55 4493.54C931.55 4493.54 982.66 4708.89 1004.06 4632.52C1014.26 4596.1 1001.68 4505.18 1004.06 4420.52C1007.14 4310.9 1029.69 4344.48 977.55 4281.02C874.05 4155.04 871.55 4334.56 931.55 4493.54Z" stroke="#000000" stroke-opacity="0" stroke-width="1.000000"/>
	<path id="Линия 3" d="M1006.03 166.77C1006.03 166.77 803.02 377.29 853.56 592.8C904.1 808.3 1006.05 929.5 1006.05 1191.56C1006.05 1367.16 1006.06 1449.35 1006.06 1501.84C1006.06 1598.34 710.64 1586.46 714.05 1799.32C715.56 1893.95 871.21 2038.09 925.05 2241.31C992.32 2495.26 1006.08 2786.88 1006.08 2786.88L1006.03 166.77Z" fill="#FFE4DD" fill-opacity="0.190000" fill-rule="evenodd"/>
	<path id="Линия 3" d="M853.56 592.8C904.1 808.3 1006.05 929.5 1006.05 1191.56C1006.05 1367.16 1006.06 1449.35 1006.06 1501.84C1006.06 1598.34 710.64 1586.46 714.05 1799.32C715.56 1893.95 871.21 2038.09 925.05 2241.31C992.32 2495.26 1006.08 2786.88 1006.08 2786.88L1006.03 166.77C1006.03 166.77 803.02 377.29 853.56 592.8Z" stroke="#000000" stroke-opacity="0" stroke-width="1.000000"/>
	<path id="Линия 3" d="M998.05 1685.82L998.25 2400.96C998.25 2400.96 931.55 2143.81 896.05 2052.81C860.55 1961.81 775.34 1847.49 820.55 1767.82C865.76 1688.15 998.05 1685.82 998.05 1685.82Z" fill="#FFE4DD" fill-opacity="0.180000" fill-rule="evenodd"/>
	<path id="Линия 3" d="M998.25 2400.96C998.25 2400.96 931.55 2143.81 896.05 2052.81C860.55 1961.81 775.34 1847.49 820.55 1767.82C865.76 1688.15 998.05 1685.82 998.05 1685.82L998.25 2400.96Z" stroke="#000000" stroke-opacity="0" stroke-width="1.000000"/>
	<path id="Линия 3" d="M1293.09 1018.16C1413.23 914.29 1559.48 600.29 1463.77 406.79C1368.05 213.29 1295.59 356.15 1104.1 130.67C912.6 -94.81 783.06 303.84 808.56 503.35C834.06 702.87 951.05 960.86 1041.05 1143.86C1131.05 1326.85 1172.94 1122.03 1293.09 1018.16Z" fill="#FFE4DD" fill-opacity="0.140000" fill-rule="evenodd"/>
	<path id="Линия 3" d="M1463.77 406.79C1368.05 213.29 1295.59 356.15 1104.1 130.67C912.6 -94.81 783.06 303.84 808.56 503.35C834.06 702.87 951.05 960.86 1041.05 1143.86C1131.05 1326.85 1172.94 1122.03 1293.09 1018.16C1413.23 914.29 1559.48 600.29 1463.77 406.79Z" stroke="#000000" stroke-opacity="0" stroke-width="1.000000"/>
	<path id="Линия 3" d="M999.94 3253.26C999.94 3253.26 918.35 3413.88 892.6 3636.3C866.85 3858.71 995.89 4112.14 995.42 4212.22C994.95 4312.29 835.11 3991.44 837.6 4212.22C840.08 4433 995.42 4757.31 995.42 4757.31L999.94 3253.26Z" fill="#FFE4DD" fill-opacity="0.160000" fill-rule="evenodd"/>
	<path id="Линия 3" d="M892.6 3636.3C866.85 3858.71 995.89 4112.14 995.42 4212.22C994.95 4312.29 835.11 3991.44 837.6 4212.22C840.08 4433 995.42 4757.31 995.42 4757.31L999.94 3253.26C999.94 3253.26 918.35 3413.88 892.6 3636.3Z" stroke="#000000" stroke-opacity="0" stroke-width="1.000000"/>
	<path id="Линия 3" d="M1001.01 8111.76C1001.01 8111.76 886.46 7978.92 863.51 7764.25C840.57 7549.59 996.2 7332.12 944.15 7034.73C892.1 6737.34 1002.56 6335.22 1002.56 6335.22L1001.01 8111.76Z" fill="#FFE4DD" fill-opacity="0.140000" fill-rule="evenodd"/>
	<path id="Линия 3" d="M863.51 7764.25C840.57 7549.59 996.2 7332.12 944.15 7034.73C892.1 6737.34 1002.56 6335.22 1002.56 6335.22L1001.01 8111.76C1001.01 8111.76 886.46 7978.92 863.51 7764.25Z" stroke="#000000" stroke-opacity="0" stroke-width="1.000000"/>
</svg>
