<svg width="923.774902" height="824.725586" viewBox="0 0 923.775 824.726" fill="none" xmlns="http://www.w3.org/2000/svg" xmlns:xlink="http://www.w3.org/1999/xlink">
	<desc>
			Created with Pixso.
	</desc>
	<defs/>
	<path id="Vector 1" d="M831.88 596.57C799.08 531.77 746.48 439.37 804.88 322.57C863.28 205.77 942.28 142.37 919.88 77.57C897.48 12.77 721.48 -37.63 571.88 37.57C422.28 112.77 279.88 95.17 207.88 69.57C135.88 43.97 -128.12 209.17 75.88 363.57C279.88 517.97 185.54 613.9 112.88 642.57C62.54 685.91 2.07 781.97 162.88 819.57C323.68 857.17 342.28 678.17 419.88 628.57C497.48 578.97 725.68 775.97 792.88 741.57C860.08 707.17 846.88 630.57 831.88 596.57Z" fill="#FFE4DF" fill-opacity="0.195402" fill-rule="evenodd"/>
	<path id="Vector 2" d="M458.88 149.57C306.88 149.57 252.88 280.77 252.88 389.57C252.88 498.37 127.28 707.17 192.88 721.57C258.48 735.97 363.28 478.77 476.88 491.57C590.48 504.37 663.68 523.97 682.88 389.57C702.08 255.17 541.54 173.57 458.88 149.57Z" fill="#FFE2DC" fill-opacity="0.258621" fill-rule="evenodd"/>
</svg>
