<svg width="1371.170410" height="6747.814941" viewBox="0 0 1371.17 6747.81" fill="none" xmlns="http://www.w3.org/2000/svg" xmlns:xlink="http://www.w3.org/1999/xlink">
	<desc>
			Created with Pixso.
	</desc>
	<defs/>
	<path id="Линия 3" d="M670.39 1783.31C670.39 1783.31 785.13 1649.59 808.73 1434.03C832.34 1218.47 677.73 1000.68 730.65 701.98C783.56 403.28 674.65 0 674.65 0L670.39 1783.31Z" fill="#FFE4DD" fill-opacity="0.380000" fill-rule="evenodd"/>
	<path id="Линия 3" d="M808.73 1434.03C832.34 1218.47 677.73 1000.68 730.65 701.98C783.56 403.28 674.65 0 674.65 0L670.39 1783.31C670.39 1783.31 785.13 1649.59 808.73 1434.03Z" stroke="#000000" stroke-opacity="0" stroke-width="1.000000"/>
	<path id="Линия 3" d="M698.68 3120.8C698.68 3120.8 813.23 3253.64 836.18 3468.3C859.13 3682.96 703.5 3900.41 755.56 4197.79C807.62 4495.17 697.16 4897.25 697.16 4897.25L698.68 3120.8Z" fill="#FFE4DD" fill-opacity="0.170000" fill-rule="evenodd"/>
	<path id="Линия 3" d="M836.18 3468.3C859.13 3682.96 703.5 3900.41 755.56 4197.79C807.62 4495.17 697.16 4897.25 697.16 4897.25L698.68 3120.8C698.68 3120.8 813.23 3253.64 836.18 3468.3Z" stroke="#000000" stroke-opacity="0" stroke-width="1.000000"/>
	<path id="Линия 3" d="M656.68 3120.79C656.68 3120.79 771.23 3253.63 794.18 3468.29C817.13 3682.95 661.5 3900.4 713.56 4197.77C765.62 4495.16 655.16 4897.25 655.16 4897.25L656.68 3120.79Z" fill="#FFE4DD" fill-opacity="0.280000" fill-rule="evenodd"/>
	<path id="Линия 3" d="M794.18 3468.29C817.13 3682.95 661.5 3900.4 713.56 4197.77C765.62 4495.16 655.16 4897.25 655.16 4897.25L656.68 3120.79C656.68 3120.79 771.23 3253.63 794.18 3468.29Z" stroke="#000000" stroke-opacity="0" stroke-width="1.000000"/>
	<path id="Линия 3" d="M701.74 6737.39C701.74 6737.39 836.95 6585.35 861.27 6357.89C885.59 6130.43 701.74 5555.26 701.74 5555.26L701.74 6737.39Z" fill="#FFE4DD" fill-opacity="0.110000" fill-rule="evenodd"/>
	<path id="Линия 3" d="M861.27 6357.89C885.59 6130.43 701.74 5555.26 701.74 5555.26L701.74 6737.39C701.74 6737.39 836.95 6585.35 861.27 6357.89Z" stroke="#000000" stroke-opacity="0" stroke-width="1.000000"/>
</svg>
