<svg width="210.422363" height="242.847656" viewBox="0 0 210.422 242.848" fill="none" xmlns="http://www.w3.org/2000/svg" xmlns:xlink="http://www.w3.org/1999/xlink">
	<desc>
			Created with Pixso.
	</desc>
	<defs/>
	<line id="line" x1="52.664307" y1="30.404297" x2="157.869385" y2="91.015137" stroke="#666666" stroke-opacity="1.000000" stroke-width="2.000000"/>
	<line id="line-2" x1="52.665161" y1="30.404297" x2="52.543701" y2="151.822754" stroke="#666666" stroke-opacity="1.000000" stroke-width="2.000000"/>
	<line id="line-3" x1="52.545288" y1="151.826172" x2="157.756104" y2="212.444336" stroke="#666666" stroke-opacity="1.000000" stroke-width="2.000000"/>
	<line id="line-4" x1="157.867188" y1="91.018555" x2="157.752441" y2="212.444336" stroke="#666666" stroke-opacity="1.000000" stroke-width="2.000000"/>
	<line id="line-5" x1="52.547119" y1="151.818848" x2="77.637573" y2="149.650391" stroke="#666666" stroke-opacity="1.000000" stroke-width="2.000000"/>
	<line id="line-6" x1="77.634888" y1="149.654297" x2="52.663452" y2="30.404785" stroke="#666666" stroke-opacity="1.000000" stroke-width="2.000000"/>
	<line id="line-7" x1="125.322876" y1="95.447266" x2="52.664917" y2="30.404297" stroke="#666666" stroke-opacity="1.000000" stroke-width="2.000000"/>
	<line id="line-8" x1="125.323975" y1="95.439941" x2="157.869507" y2="91.007812" stroke="#666666" stroke-opacity="1.000000" stroke-width="2.000000"/>
	<line id="line-9" x1="125.323975" y1="95.447266" x2="108.613159" y2="127.327637" stroke="#666666" stroke-opacity="1.000000" stroke-width="2.000000"/>
	<line id="line-10" x1="108.609131" y1="127.323730" x2="75.339844" y2="138.660156" stroke="#666666" stroke-opacity="1.000000" stroke-width="2.000000"/>
	<line id="line-11" x1="77.635132" y1="149.654297" x2="157.753418" y2="212.444824" stroke="#666666" stroke-opacity="1.000000" stroke-width="2.000000"/>
	<line id="line-12" x1="108.609131" y1="127.323730" x2="157.756714" y2="210.486816" stroke="#666666" stroke-opacity="1.000000" stroke-width="2.000000"/>
	<line id="line-13" x1="118.117432" y1="110.727539" x2="157.837036" y2="136.345703" stroke="#666666" stroke-opacity="1.000000" stroke-width="2.000000"/>
	<line id="line-14" x1="127.721313" y1="108.934570" x2="148.151611" y2="120.580566" stroke="#666666" stroke-opacity="1.000000" stroke-width="2.000000"/>
	<line id="line-15" x1="84.484863" y1="141.604492" x2="105.931763" y2="135.385742" stroke="#666666" stroke-opacity="1.000000" stroke-width="2.000000"/>
	<line id="line-16" x1="90.334717" y1="144.565430" x2="107.582397" y2="139.557129" stroke="#666666" stroke-opacity="1.000000" stroke-width="2.000000"/>
	<line id="line-17" x1="71.902344" y1="122.169922" x2="89.642212" y2="64.022949" stroke="#666666" stroke-opacity="1.000000" stroke-width="2.000000"/>
	<line id="line-18" x1="86.226318" y1="107.571289" x2="97.254395" y2="71.429688" stroke="#666666" stroke-opacity="1.000000" stroke-width="2.000000"/>
	<line id="line-19" x1="74.009033" y1="87.876465" x2="80.765259" y2="65.732422" stroke="#666666" stroke-opacity="1.000000" stroke-width="2.000000"/>
	<line id="line-20" x1="59.069458" y1="60.985352" x2="63.532104" y2="150.873535" stroke="#666666" stroke-opacity="1.000000" stroke-width="2.000000"/>
	<line id="line-21" x1="105.266113" y1="60.713867" x2="115.910400" y2="87.031250" stroke="#666666" stroke-opacity="1.000000" stroke-width="2.000000"/>
	<line id="line-22" x1="114.273071" y1="65.896484" x2="121.871948" y2="84.701660" stroke="#666666" stroke-opacity="1.000000" stroke-width="2.000000"/>
</svg>
