<svg width="92.000000" height="92.000000" viewBox="0 0 92 92" fill="none" xmlns="http://www.w3.org/2000/svg" xmlns:xlink="http://www.w3.org/1999/xlink">
	<desc>
			Created with Pixso.
	</desc>
	<defs>
		<clipPath id="clip58_25">
			<rect id="icons8-телеграм" width="92.000000" height="92.000008" fill="white" fill-opacity="0"/>
		</clipPath>
	</defs>
	<g clip-path="url(#clip58_25)">
		<path id="path" d="M81.65 11.01C80.75 11.05 79.88 11.3 79.09 11.61C78.31 11.93 73.83 13.84 67.21 16.67C60.59 19.5 51.99 23.19 43.46 26.84C26.4 34.15 9.63 41.34 9.63 41.34C9.63 41.34 8.74 41.63 7.72 42.35C7.21 42.71 6.65 43.17 6.2 43.84C5.75 44.51 5.42 45.46 5.54 46.47C5.98 50.01 9.65 51.02 9.65 51.02L26.05 56.63C26.46 58.03 31.01 73.21 32.02 76.43C32.57 78.21 33.09 79.24 33.63 79.93C33.9 80.29 34.18 80.56 34.49 80.75C34.62 80.83 34.75 80.89 34.88 80.94C34.93 80.96 35.07 81.01 35.15 81.03C37.02 81.68 38.57 80.47 38.57 80.47L48.7 71.08L65.03 83.82L65.24 83.91C68.09 85.18 70.68 84.47 72.11 83.31C73.54 82.14 74.11 80.64 74.11 80.64L86.17 17.94C86.47 16.54 86.52 15.33 86.23 14.24C85.94 13.14 85.23 12.19 84.35 11.67C83.47 11.14 82.54 10.97 81.65 11.01ZM81.75 14.75C82.11 14.73 82.38 14.78 82.46 14.83C82.55 14.88 82.59 14.87 82.67 15.18C82.75 15.49 82.8 16.14 82.57 17.15L70.63 79.35C70.61 79.41 70.36 79.99 69.79 80.45C69.21 80.92 68.57 81.29 66.86 80.57L49 66.65L48.5 66.25L43.15 62.26L73.16 26.95C73.67 26.34 73.76 25.68 73.42 24.96C73.07 24.24 72.5 23.89 71.71 23.91C71.35 23.92 71.03 24.03 70.73 24.22L27.31 53.18L10.9 47.56C10.9 47.56 9.27 46.65 9.2 46.02C9.28 45.89 9.55 45.55 9.82 45.37C10.35 45 10.96 44.77 10.96 44.77C10.96 44.77 27.85 37.53 44.91 30.22C53.44 26.57 62.04 22.89 68.66 20.06C75.28 17.23 80.06 15.19 80.46 15.03C80.92 14.84 81.38 14.77 81.75 14.75ZM61.84 34.57L39.08 61.35C39.05 61.4 38.9 61.6 38.87 61.65C38.74 61.87 38.66 62.11 38.63 62.36L35.67 75.71C35.62 75.56 35.58 75.51 35.53 75.34C34.59 72.31 30.29 57.99 29.7 56L61.84 34.57ZM41.65 65.74L45.74 68.81L39.73 74.38L41.65 65.74Z" fill="#666666" fill-opacity="1.000000" fill-rule="nonzero"/>
	</g>
</svg>
